<mxfile host="app.diagrams.net" agent="Mozilla/5.0 (Windows NT 10.0; Win64; x64) AppleWebKit/537.36 (KHTML, like Gecko) Chrome/131.0.0.0 Safari/537.36 Edg/131.0.0.0" version="25.0.1">
  <diagram name="PÃ¡gina-1" id="Lajqjl-F_BPVKonn6Wrh">
    <mxGraphModel dx="1124" dy="749" grid="1" gridSize="10" guides="1" tooltips="1" connect="1" arrows="1" fold="1" page="1" pageScale="1" pageWidth="827" pageHeight="1169" math="0" shadow="0">
      <root>
        <mxCell id="0" />
        <mxCell id="1" parent="0" />
        <mxCell id="zp3nPNhEVCg_G4fRHyut-75" value="Cliente" style="rounded=0;whiteSpace=wrap;html=1;" vertex="1" parent="1">
          <mxGeometry x="107.5" y="80" width="120" height="60" as="geometry" />
        </mxCell>
        <mxCell id="zp3nPNhEVCg_G4fRHyut-76" value="&lt;u&gt;primary&amp;nbsp;&lt;span style=&quot;color: rgba(0, 0, 0, 0); font-family: monospace; font-size: 0px; text-align: start; text-wrap-mode: nowrap;&quot;&gt;%3CmxGraphModel%3E%3Croot%3E%3CmxCell%20id%3D%220%22%2F%3E%3CmxCell%20id%3D%221%22%20parent%3D%220%22%2F%3E%3CmxCell%20id%3D%222%22%20value%3D%22Cliente%22%20style%3D%22shape%3Dtable%3BstartSize%3D30%3Bcontainer%3D1%3Bcollapsible%3D0%3BchildLayout%3DtableLayout%3BfixedRows%3D1%3BrowLines%3D0%3BfontStyle%3D0%3BstrokeColor%3Ddefault%3BfontSize%3D16%3B%22%20vertex%3D%221%22%20parent%3D%221%22%3E%3CmxGeometry%20x%3D%2220%22%20y%3D%22240%22%20width%3D%22310%22%20height%3D%22160%22%20as%3D%22geometry%22%2F%3E%3C%2FmxCell%3E%3CmxCell%20id%3D%223%22%20value%3D%22%22%20style%3D%22shape%3DtableRow%3Bhorizontal%3D0%3BstartSize%3D0%3BswimlaneHead%3D0%3BswimlaneBody%3D0%3Btop%3D0%3Bleft%3D0%3Bbottom%3D0%3Bright%3D0%3Bcollapsible%3D0%3BdropTarget%3D0%3BfillColor%3Dnone%3Bpoints%3D%5B%5B0%2C0.5%5D%2C%5B1%2C0.5%5D%5D%3BportConstraint%3Deastwest%3BstrokeColor%3Dinherit%3BfontSize%3D16%3B%22%20vertex%3D%221%22%20parent%3D%222%22%3E%3CmxGeometry%20y%3D%2230%22%20width%3D%22310%22%20height%3D%2240%22%20as%3D%22geometry%22%2F%3E%3C%2FmxCell%3E%3CmxCell%20id%3D%224%22%20value%3D%22PK%22%20style%3D%22shape%3DpartialRectangle%3Bhtml%3D1%3BwhiteSpace%3Dwrap%3Bconnectable%3D0%3BfillColor%3Dnone%3Btop%3D0%3Bleft%3D0%3Bbottom%3D0%3Bright%3D0%3Boverflow%3Dhidden%3BpointerEvents%3D1%3BstrokeColor%3Dinherit%3BfontSize%3D16%3B%22%20vertex%3D%221%22%20parent%3D%223%22%3E%3CmxGeometry%20width%3D%2269%22%20height%3D%2240%22%20as%3D%22geometry%22%3E%3CmxRectangle%20width%3D%2269%22%20height%3D%2240%22%20as%3D%22alternateBounds%22%2F%3E%3C%2FmxGeometry%3E%3C%2FmxCell%3E%3CmxCell%20id%3D%225%22%20value%3D%22%26lt%3Bu%26gt%3BPrymary%20key%26lt%3B%2Fu%26gt%3B%22%20style%3D%22shape%3DpartialRectangle%3Bhtml%3D1%3BwhiteSpace%3Dwrap%3Bconnectable%3D0%3BfillColor%3Dnone%3Btop%3D0%3Bleft%3D0%3Bbottom%3D0%3Bright%3D0%3Balign%3Dleft%3BspacingLeft%3D6%3Boverflow%3Dhidden%3BstrokeColor%3Dinherit%3BfontSize%3D16%3B%22%20vertex%3D%221%22%20parent%3D%223%22%3E%3CmxGeometry%20x%3D%2269%22%20width%3D%22241%22%20height%3D%2240%22%20as%3D%22geometry%22%3E%3CmxRectangle%20width%3D%22241%22%20height%3D%2240%22%20as%3D%22alternateBounds%22%2F%3E%3C%2FmxGeometry%3E%3C%2FmxCell%3E%3CmxCell%20id%3D%226%22%20value%3D%22%22%20style%3D%22shape%3DtableRow%3Bhorizontal%3D0%3BstartSize%3D0%3BswimlaneHead%3D0%3BswimlaneBody%3D0%3Btop%3D0%3Bleft%3D0%3Bbottom%3D0%3Bright%3D0%3Bcollapsible%3D0%3BdropTarget%3D0%3BfillColor%3Dnone%3Bpoints%3D%5B%5B0%2C0.5%5D%2C%5B1%2C0.5%5D%5D%3BportConstraint%3Deastwest%3BstrokeColor%3Dinherit%3BfontSize%3D16%3B%22%20vertex%3D%221%22%20parent%3D%222%22%3E%3CmxGeometry%20y%3D%2270%22%20width%3D%22310%22%20height%3D%2270%22%20as%3D%22geometry%22%2F%3E%3C%2FmxCell%3E%3CmxCell%20id%3D%227%22%20value%3D%22Tipo%20Cliente%22%20style%3D%22shape%3DpartialRectangle%3Bhtml%3D1%3BwhiteSpace%3Dwrap%3Bconnectable%3D0%3BfillColor%3Dnone%3Btop%3D0%3Bleft%3D0%3Bbottom%3D0%3Bright%3D0%3Boverflow%3Dhidden%3BstrokeColor%3Dinherit%3BfontSize%3D16%3B%22%20vertex%3D%221%22%20parent%3D%226%22%3E%3CmxGeometry%20width%3D%2269%22%20height%3D%2270%22%20as%3D%22geometry%22%3E%3CmxRectangle%20width%3D%2269%22%20height%3D%2270%22%20as%3D%22alternateBounds%22%2F%3E%3C%2FmxGeometry%3E%3C%2FmxCell%3E%3CmxCell%20id%3D%228%22%20value%3D%22Pj%20ou%20Pf%22%20style%3D%22shape%3DpartialRectangle%3Bhtml%3D1%3BwhiteSpace%3Dwrap%3Bconnectable%3D0%3BfillColor%3Dnone%3Btop%3D0%3Bleft%3D0%3Bbottom%3D0%3Bright%3D0%3Balign%3Dleft%3BspacingLeft%3D6%3Boverflow%3Dhidden%3BstrokeColor%3Dinherit%3BfontSize%3D16%3B%22%20vertex%3D%221%22%20parent%3D%226%22%3E%3CmxGeometry%20x%3D%2269%22%20width%3D%22241%22%20height%3D%2270%22%20as%3D%22geometry%22%3E%3CmxRectangle%20width%3D%22241%22%20height%3D%2270%22%20as%3D%22alternateBounds%22%2F%3E%3C%2FmxGeometry%3E%3C%2FmxCell%3E%3CmxCell%20id%3D%229%22%20value%3D%22%22%20style%3D%22shape%3DtableRow%3Bhorizontal%3D0%3BstartSize%3D0%3BswimlaneHead%3D0%3BswimlaneBody%3D0%3Btop%3D0%3Bleft%3D0%3Bbottom%3D0%3Bright%3D0%3Bcollapsible%3D0%3BdropTarget%3D0%3BfillColor%3Dnone%3Bpoints%3D%5B%5B0%2C0.5%5D%2C%5B1%2C0.5%5D%5D%3BportConstraint%3Deastwest%3BstrokeColor%3Dinherit%3BfontSize%3D16%3B%22%20vertex%3D%221%22%20parent%3D%222%22%3E%3CmxGeometry%20y%3D%22140%22%20width%3D%22310%22%20height%3D%2220%22%20as%3D%22geometry%22%2F%3E%3C%2FmxCell%3E%3CmxCell%20id%3D%2210%22%20value%3D%22%22%20style%3D%22shape%3DpartialRectangle%3Bhtml%3D1%3BwhiteSpace%3Dwrap%3Bconnectable%3D0%3BfillColor%3Dnone%3Btop%3D0%3Bleft%3D0%3Bbottom%3D0%3Bright%3D0%3Boverflow%3Dhidden%3BstrokeColor%3Dinherit%3BfontSize%3D16%3B%22%20vertex%3D%221%22%20parent%3D%229%22%3E%3CmxGeometry%20width%3D%2269%22%20height%3D%2220%22%20as%3D%22geometry%22%3E%3CmxRectangle%20width%3D%2269%22%20height%3D%2220%22%20as%3D%22alternateBounds%22%2F%3E%3C%2FmxGeometry%3E%3C%2FmxCell%3E%3CmxCell%20id%3D%2211%22%20value%3D%22%22%20style%3D%22shape%3DpartialRectangle%3Bhtml%3D1%3BwhiteSpace%3Dwrap%3Bconnectable%3D0%3BfillColor%3Dnone%3Btop%3D0%3Bleft%3D0%3Bbottom%3D0%3Bright%3D0%3Balign%3Dleft%3BspacingLeft%3D6%3Boverflow%3Dhidden%3BstrokeColor%3Dinherit%3BfontSize%3D16%3B%22%20vertex%3D%221%22%20parent%3D%229%22%3E%3CmxGeometry%20x%3D%2269%22%20width%3D%22241%22%20height%3D%2220%22%20as%3D%22geometry%22%3E%3CmxRectangle%20width%3D%22241%22%20height%3D%2220%22%20as%3D%22alternateBounds%22%2F%3E%3C%2FmxGeometry%3E%3C%2FmxCell%3E%3C%2Froot%3E%3C%2FmxGraphModel%3E&lt;/span&gt;key&lt;/u&gt;" style="ellipse;whiteSpace=wrap;html=1;" vertex="1" parent="1">
          <mxGeometry x="247.5" y="30" width="80" height="60" as="geometry" />
        </mxCell>
        <mxCell id="zp3nPNhEVCg_G4fRHyut-77" value="Pj ou Pf" style="ellipse;whiteSpace=wrap;html=1;" vertex="1" parent="1">
          <mxGeometry x="22.5" y="30" width="85" height="60" as="geometry" />
        </mxCell>
        <mxCell id="zp3nPNhEVCg_G4fRHyut-78" value="" style="endArrow=none;html=1;rounded=0;exitX=0;exitY=0.5;exitDx=0;exitDy=0;" edge="1" parent="1" source="zp3nPNhEVCg_G4fRHyut-75" target="zp3nPNhEVCg_G4fRHyut-77">
          <mxGeometry width="50" height="50" relative="1" as="geometry">
            <mxPoint x="270" y="410" as="sourcePoint" />
            <mxPoint x="320" y="360" as="targetPoint" />
          </mxGeometry>
        </mxCell>
        <mxCell id="zp3nPNhEVCg_G4fRHyut-79" value="" style="endArrow=none;html=1;rounded=0;exitX=0.988;exitY=0.633;exitDx=0;exitDy=0;exitPerimeter=0;" edge="1" parent="1" source="zp3nPNhEVCg_G4fRHyut-75" target="zp3nPNhEVCg_G4fRHyut-76">
          <mxGeometry width="50" height="50" relative="1" as="geometry">
            <mxPoint x="118" y="120" as="sourcePoint" />
            <mxPoint x="97" y="96" as="targetPoint" />
          </mxGeometry>
        </mxCell>
        <mxCell id="zp3nPNhEVCg_G4fRHyut-80" value="Cliente Pf" style="rounded=0;whiteSpace=wrap;html=1;" vertex="1" parent="1">
          <mxGeometry x="117.5" y="240" width="120" height="60" as="geometry" />
        </mxCell>
        <mxCell id="zp3nPNhEVCg_G4fRHyut-81" value="&lt;u&gt;primary&amp;nbsp;&lt;span style=&quot;color: rgba(0, 0, 0, 0); font-family: monospace; font-size: 0px; text-align: start; text-wrap-mode: nowrap;&quot;&gt;%3CmxGraphModel%3E%3Croot%3E%3CmxCell%20id%3D%220%22%2F%3E%3CmxCell%20id%3D%221%22%20parent%3D%220%22%2F%3E%3CmxCell%20id%3D%222%22%20value%3D%22Cliente%22%20style%3D%22shape%3Dtable%3BstartSize%3D30%3Bcontainer%3D1%3Bcollapsible%3D0%3BchildLayout%3DtableLayout%3BfixedRows%3D1%3BrowLines%3D0%3BfontStyle%3D0%3BstrokeColor%3Ddefault%3BfontSize%3D16%3B%22%20vertex%3D%221%22%20parent%3D%221%22%3E%3CmxGeometry%20x%3D%2220%22%20y%3D%22240%22%20width%3D%22310%22%20height%3D%22160%22%20as%3D%22geometry%22%2F%3E%3C%2FmxCell%3E%3CmxCell%20id%3D%223%22%20value%3D%22%22%20style%3D%22shape%3DtableRow%3Bhorizontal%3D0%3BstartSize%3D0%3BswimlaneHead%3D0%3BswimlaneBody%3D0%3Btop%3D0%3Bleft%3D0%3Bbottom%3D0%3Bright%3D0%3Bcollapsible%3D0%3BdropTarget%3D0%3BfillColor%3Dnone%3Bpoints%3D%5B%5B0%2C0.5%5D%2C%5B1%2C0.5%5D%5D%3BportConstraint%3Deastwest%3BstrokeColor%3Dinherit%3BfontSize%3D16%3B%22%20vertex%3D%221%22%20parent%3D%222%22%3E%3CmxGeometry%20y%3D%2230%22%20width%3D%22310%22%20height%3D%2240%22%20as%3D%22geometry%22%2F%3E%3C%2FmxCell%3E%3CmxCell%20id%3D%224%22%20value%3D%22PK%22%20style%3D%22shape%3DpartialRectangle%3Bhtml%3D1%3BwhiteSpace%3Dwrap%3Bconnectable%3D0%3BfillColor%3Dnone%3Btop%3D0%3Bleft%3D0%3Bbottom%3D0%3Bright%3D0%3Boverflow%3Dhidden%3BpointerEvents%3D1%3BstrokeColor%3Dinherit%3BfontSize%3D16%3B%22%20vertex%3D%221%22%20parent%3D%223%22%3E%3CmxGeometry%20width%3D%2269%22%20height%3D%2240%22%20as%3D%22geometry%22%3E%3CmxRectangle%20width%3D%2269%22%20height%3D%2240%22%20as%3D%22alternateBounds%22%2F%3E%3C%2FmxGeometry%3E%3C%2FmxCell%3E%3CmxCell%20id%3D%225%22%20value%3D%22%26lt%3Bu%26gt%3BPrymary%20key%26lt%3B%2Fu%26gt%3B%22%20style%3D%22shape%3DpartialRectangle%3Bhtml%3D1%3BwhiteSpace%3Dwrap%3Bconnectable%3D0%3BfillColor%3Dnone%3Btop%3D0%3Bleft%3D0%3Bbottom%3D0%3Bright%3D0%3Balign%3Dleft%3BspacingLeft%3D6%3Boverflow%3Dhidden%3BstrokeColor%3Dinherit%3BfontSize%3D16%3B%22%20vertex%3D%221%22%20parent%3D%223%22%3E%3CmxGeometry%20x%3D%2269%22%20width%3D%22241%22%20height%3D%2240%22%20as%3D%22geometry%22%3E%3CmxRectangle%20width%3D%22241%22%20height%3D%2240%22%20as%3D%22alternateBounds%22%2F%3E%3C%2FmxGeometry%3E%3C%2FmxCell%3E%3CmxCell%20id%3D%226%22%20value%3D%22%22%20style%3D%22shape%3DtableRow%3Bhorizontal%3D0%3BstartSize%3D0%3BswimlaneHead%3D0%3BswimlaneBody%3D0%3Btop%3D0%3Bleft%3D0%3Bbottom%3D0%3Bright%3D0%3Bcollapsible%3D0%3BdropTarget%3D0%3BfillColor%3Dnone%3Bpoints%3D%5B%5B0%2C0.5%5D%2C%5B1%2C0.5%5D%5D%3BportConstraint%3Deastwest%3BstrokeColor%3Dinherit%3BfontSize%3D16%3B%22%20vertex%3D%221%22%20parent%3D%222%22%3E%3CmxGeometry%20y%3D%2270%22%20width%3D%22310%22%20height%3D%2270%22%20as%3D%22geometry%22%2F%3E%3C%2FmxCell%3E%3CmxCell%20id%3D%227%22%20value%3D%22Tipo%20Cliente%22%20style%3D%22shape%3DpartialRectangle%3Bhtml%3D1%3BwhiteSpace%3Dwrap%3Bconnectable%3D0%3BfillColor%3Dnone%3Btop%3D0%3Bleft%3D0%3Bbottom%3D0%3Bright%3D0%3Boverflow%3Dhidden%3BstrokeColor%3Dinherit%3BfontSize%3D16%3B%22%20vertex%3D%221%22%20parent%3D%226%22%3E%3CmxGeometry%20width%3D%2269%22%20height%3D%2270%22%20as%3D%22geometry%22%3E%3CmxRectangle%20width%3D%2269%22%20height%3D%2270%22%20as%3D%22alternateBounds%22%2F%3E%3C%2FmxGeometry%3E%3C%2FmxCell%3E%3CmxCell%20id%3D%228%22%20value%3D%22Pj%20ou%20Pf%22%20style%3D%22shape%3DpartialRectangle%3Bhtml%3D1%3BwhiteSpace%3Dwrap%3Bconnectable%3D0%3BfillColor%3Dnone%3Btop%3D0%3Bleft%3D0%3Bbottom%3D0%3Bright%3D0%3Balign%3Dleft%3BspacingLeft%3D6%3Boverflow%3Dhidden%3BstrokeColor%3Dinherit%3BfontSize%3D16%3B%22%20vertex%3D%221%22%20parent%3D%226%22%3E%3CmxGeometry%20x%3D%2269%22%20width%3D%22241%22%20height%3D%2270%22%20as%3D%22geometry%22%3E%3CmxRectangle%20width%3D%22241%22%20height%3D%2270%22%20as%3D%22alternateBounds%22%2F%3E%3C%2FmxGeometry%3E%3C%2FmxCell%3E%3CmxCell%20id%3D%229%22%20value%3D%22%22%20style%3D%22shape%3DtableRow%3Bhorizontal%3D0%3BstartSize%3D0%3BswimlaneHead%3D0%3BswimlaneBody%3D0%3Btop%3D0%3Bleft%3D0%3Bbottom%3D0%3Bright%3D0%3Bcollapsible%3D0%3BdropTarget%3D0%3BfillColor%3Dnone%3Bpoints%3D%5B%5B0%2C0.5%5D%2C%5B1%2C0.5%5D%5D%3BportConstraint%3Deastwest%3BstrokeColor%3Dinherit%3BfontSize%3D16%3B%22%20vertex%3D%221%22%20parent%3D%222%22%3E%3CmxGeometry%20y%3D%22140%22%20width%3D%22310%22%20height%3D%2220%22%20as%3D%22geometry%22%2F%3E%3C%2FmxCell%3E%3CmxCell%20id%3D%2210%22%20value%3D%22%22%20style%3D%22shape%3DpartialRectangle%3Bhtml%3D1%3BwhiteSpace%3Dwrap%3Bconnectable%3D0%3BfillColor%3Dnone%3Btop%3D0%3Bleft%3D0%3Bbottom%3D0%3Bright%3D0%3Boverflow%3Dhidden%3BstrokeColor%3Dinherit%3BfontSize%3D16%3B%22%20vertex%3D%221%22%20parent%3D%229%22%3E%3CmxGeometry%20width%3D%2269%22%20height%3D%2220%22%20as%3D%22geometry%22%3E%3CmxRectangle%20width%3D%2269%22%20height%3D%2220%22%20as%3D%22alternateBounds%22%2F%3E%3C%2FmxGeometry%3E%3C%2FmxCell%3E%3CmxCell%20id%3D%2211%22%20value%3D%22%22%20style%3D%22shape%3DpartialRectangle%3Bhtml%3D1%3BwhiteSpace%3Dwrap%3Bconnectable%3D0%3BfillColor%3Dnone%3Btop%3D0%3Bleft%3D0%3Bbottom%3D0%3Bright%3D0%3Balign%3Dleft%3BspacingLeft%3D6%3Boverflow%3Dhidden%3BstrokeColor%3Dinherit%3BfontSize%3D16%3B%22%20vertex%3D%221%22%20parent%3D%229%22%3E%3CmxGeometry%20x%3D%2269%22%20width%3D%22241%22%20height%3D%2220%22%20as%3D%22geometry%22%3E%3CmxRectangle%20width%3D%22241%22%20height%3D%2220%22%20as%3D%22alternateBounds%22%2F%3E%3C%2FmxGeometry%3E%3C%2FmxCell%3E%3C%2Froot%3E%3C%2FmxGraphModel%3E&lt;/span&gt;key&lt;/u&gt;" style="ellipse;whiteSpace=wrap;html=1;" vertex="1" parent="1">
          <mxGeometry x="257.5" y="190" width="80" height="60" as="geometry" />
        </mxCell>
        <mxCell id="zp3nPNhEVCg_G4fRHyut-82" value="Nome&amp;nbsp;" style="ellipse;whiteSpace=wrap;html=1;" vertex="1" parent="1">
          <mxGeometry x="15" y="140" width="85" height="60" as="geometry" />
        </mxCell>
        <mxCell id="zp3nPNhEVCg_G4fRHyut-83" value="" style="endArrow=none;html=1;rounded=0;" edge="1" parent="1" source="zp3nPNhEVCg_G4fRHyut-75" target="zp3nPNhEVCg_G4fRHyut-82">
          <mxGeometry width="50" height="50" relative="1" as="geometry">
            <mxPoint x="280" y="570" as="sourcePoint" />
            <mxPoint x="330" y="520" as="targetPoint" />
          </mxGeometry>
        </mxCell>
        <mxCell id="zp3nPNhEVCg_G4fRHyut-84" value="" style="endArrow=none;html=1;rounded=0;exitX=0.988;exitY=0.633;exitDx=0;exitDy=0;exitPerimeter=0;" edge="1" parent="1" source="zp3nPNhEVCg_G4fRHyut-80" target="zp3nPNhEVCg_G4fRHyut-81">
          <mxGeometry width="50" height="50" relative="1" as="geometry">
            <mxPoint x="128" y="280" as="sourcePoint" />
            <mxPoint x="107" y="256" as="targetPoint" />
          </mxGeometry>
        </mxCell>
        <mxCell id="zp3nPNhEVCg_G4fRHyut-85" value="&lt;u&gt;FK&lt;/u&gt;" style="ellipse;whiteSpace=wrap;html=1;" vertex="1" parent="1">
          <mxGeometry x="257.5" y="310" width="80" height="60" as="geometry" />
        </mxCell>
        <mxCell id="zp3nPNhEVCg_G4fRHyut-86" value="" style="endArrow=none;html=1;rounded=0;entryX=1;entryY=1;entryDx=0;entryDy=0;" edge="1" parent="1" source="zp3nPNhEVCg_G4fRHyut-85" target="zp3nPNhEVCg_G4fRHyut-80">
          <mxGeometry width="50" height="50" relative="1" as="geometry">
            <mxPoint x="510" y="410" as="sourcePoint" />
            <mxPoint x="560" y="360" as="targetPoint" />
          </mxGeometry>
        </mxCell>
        <mxCell id="zp3nPNhEVCg_G4fRHyut-89" value="cpf" style="ellipse;whiteSpace=wrap;html=1;" vertex="1" parent="1">
          <mxGeometry x="20" y="310" width="80" height="60" as="geometry" />
        </mxCell>
        <mxCell id="zp3nPNhEVCg_G4fRHyut-90" value="" style="endArrow=none;html=1;rounded=0;entryX=0;entryY=1;entryDx=0;entryDy=0;" edge="1" parent="1" source="zp3nPNhEVCg_G4fRHyut-89" target="zp3nPNhEVCg_G4fRHyut-80">
          <mxGeometry width="50" height="50" relative="1" as="geometry">
            <mxPoint x="510" y="410" as="sourcePoint" />
            <mxPoint x="560" y="360" as="targetPoint" />
          </mxGeometry>
        </mxCell>
        <mxCell id="zp3nPNhEVCg_G4fRHyut-91" value="Cliente Pj" style="rounded=0;whiteSpace=wrap;html=1;" vertex="1" parent="1">
          <mxGeometry x="497.5" y="110" width="120" height="60" as="geometry" />
        </mxCell>
        <mxCell id="zp3nPNhEVCg_G4fRHyut-92" value="&lt;u&gt;primary&amp;nbsp;&lt;span style=&quot;color: rgba(0, 0, 0, 0); font-family: monospace; font-size: 0px; text-align: start; text-wrap-mode: nowrap;&quot;&gt;%3CmxGraphModel%3E%3Croot%3E%3CmxCell%20id%3D%220%22%2F%3E%3CmxCell%20id%3D%221%22%20parent%3D%220%22%2F%3E%3CmxCell%20id%3D%222%22%20value%3D%22Cliente%22%20style%3D%22shape%3Dtable%3BstartSize%3D30%3Bcontainer%3D1%3Bcollapsible%3D0%3BchildLayout%3DtableLayout%3BfixedRows%3D1%3BrowLines%3D0%3BfontStyle%3D0%3BstrokeColor%3Ddefault%3BfontSize%3D16%3B%22%20vertex%3D%221%22%20parent%3D%221%22%3E%3CmxGeometry%20x%3D%2220%22%20y%3D%22240%22%20width%3D%22310%22%20height%3D%22160%22%20as%3D%22geometry%22%2F%3E%3C%2FmxCell%3E%3CmxCell%20id%3D%223%22%20value%3D%22%22%20style%3D%22shape%3DtableRow%3Bhorizontal%3D0%3BstartSize%3D0%3BswimlaneHead%3D0%3BswimlaneBody%3D0%3Btop%3D0%3Bleft%3D0%3Bbottom%3D0%3Bright%3D0%3Bcollapsible%3D0%3BdropTarget%3D0%3BfillColor%3Dnone%3Bpoints%3D%5B%5B0%2C0.5%5D%2C%5B1%2C0.5%5D%5D%3BportConstraint%3Deastwest%3BstrokeColor%3Dinherit%3BfontSize%3D16%3B%22%20vertex%3D%221%22%20parent%3D%222%22%3E%3CmxGeometry%20y%3D%2230%22%20width%3D%22310%22%20height%3D%2240%22%20as%3D%22geometry%22%2F%3E%3C%2FmxCell%3E%3CmxCell%20id%3D%224%22%20value%3D%22PK%22%20style%3D%22shape%3DpartialRectangle%3Bhtml%3D1%3BwhiteSpace%3Dwrap%3Bconnectable%3D0%3BfillColor%3Dnone%3Btop%3D0%3Bleft%3D0%3Bbottom%3D0%3Bright%3D0%3Boverflow%3Dhidden%3BpointerEvents%3D1%3BstrokeColor%3Dinherit%3BfontSize%3D16%3B%22%20vertex%3D%221%22%20parent%3D%223%22%3E%3CmxGeometry%20width%3D%2269%22%20height%3D%2240%22%20as%3D%22geometry%22%3E%3CmxRectangle%20width%3D%2269%22%20height%3D%2240%22%20as%3D%22alternateBounds%22%2F%3E%3C%2FmxGeometry%3E%3C%2FmxCell%3E%3CmxCell%20id%3D%225%22%20value%3D%22%26lt%3Bu%26gt%3BPrymary%20key%26lt%3B%2Fu%26gt%3B%22%20style%3D%22shape%3DpartialRectangle%3Bhtml%3D1%3BwhiteSpace%3Dwrap%3Bconnectable%3D0%3BfillColor%3Dnone%3Btop%3D0%3Bleft%3D0%3Bbottom%3D0%3Bright%3D0%3Balign%3Dleft%3BspacingLeft%3D6%3Boverflow%3Dhidden%3BstrokeColor%3Dinherit%3BfontSize%3D16%3B%22%20vertex%3D%221%22%20parent%3D%223%22%3E%3CmxGeometry%20x%3D%2269%22%20width%3D%22241%22%20height%3D%2240%22%20as%3D%22geometry%22%3E%3CmxRectangle%20width%3D%22241%22%20height%3D%2240%22%20as%3D%22alternateBounds%22%2F%3E%3C%2FmxGeometry%3E%3C%2FmxCell%3E%3CmxCell%20id%3D%226%22%20value%3D%22%22%20style%3D%22shape%3DtableRow%3Bhorizontal%3D0%3BstartSize%3D0%3BswimlaneHead%3D0%3BswimlaneBody%3D0%3Btop%3D0%3Bleft%3D0%3Bbottom%3D0%3Bright%3D0%3Bcollapsible%3D0%3BdropTarget%3D0%3BfillColor%3Dnone%3Bpoints%3D%5B%5B0%2C0.5%5D%2C%5B1%2C0.5%5D%5D%3BportConstraint%3Deastwest%3BstrokeColor%3Dinherit%3BfontSize%3D16%3B%22%20vertex%3D%221%22%20parent%3D%222%22%3E%3CmxGeometry%20y%3D%2270%22%20width%3D%22310%22%20height%3D%2270%22%20as%3D%22geometry%22%2F%3E%3C%2FmxCell%3E%3CmxCell%20id%3D%227%22%20value%3D%22Tipo%20Cliente%22%20style%3D%22shape%3DpartialRectangle%3Bhtml%3D1%3BwhiteSpace%3Dwrap%3Bconnectable%3D0%3BfillColor%3Dnone%3Btop%3D0%3Bleft%3D0%3Bbottom%3D0%3Bright%3D0%3Boverflow%3Dhidden%3BstrokeColor%3Dinherit%3BfontSize%3D16%3B%22%20vertex%3D%221%22%20parent%3D%226%22%3E%3CmxGeometry%20width%3D%2269%22%20height%3D%2270%22%20as%3D%22geometry%22%3E%3CmxRectangle%20width%3D%2269%22%20height%3D%2270%22%20as%3D%22alternateBounds%22%2F%3E%3C%2FmxGeometry%3E%3C%2FmxCell%3E%3CmxCell%20id%3D%228%22%20value%3D%22Pj%20ou%20Pf%22%20style%3D%22shape%3DpartialRectangle%3Bhtml%3D1%3BwhiteSpace%3Dwrap%3Bconnectable%3D0%3BfillColor%3Dnone%3Btop%3D0%3Bleft%3D0%3Bbottom%3D0%3Bright%3D0%3Balign%3Dleft%3BspacingLeft%3D6%3Boverflow%3Dhidden%3BstrokeColor%3Dinherit%3BfontSize%3D16%3B%22%20vertex%3D%221%22%20parent%3D%226%22%3E%3CmxGeometry%20x%3D%2269%22%20width%3D%22241%22%20height%3D%2270%22%20as%3D%22geometry%22%3E%3CmxRectangle%20width%3D%22241%22%20height%3D%2270%22%20as%3D%22alternateBounds%22%2F%3E%3C%2FmxGeometry%3E%3C%2FmxCell%3E%3CmxCell%20id%3D%229%22%20value%3D%22%22%20style%3D%22shape%3DtableRow%3Bhorizontal%3D0%3BstartSize%3D0%3BswimlaneHead%3D0%3BswimlaneBody%3D0%3Btop%3D0%3Bleft%3D0%3Bbottom%3D0%3Bright%3D0%3Bcollapsible%3D0%3BdropTarget%3D0%3BfillColor%3Dnone%3Bpoints%3D%5B%5B0%2C0.5%5D%2C%5B1%2C0.5%5D%5D%3BportConstraint%3Deastwest%3BstrokeColor%3Dinherit%3BfontSize%3D16%3B%22%20vertex%3D%221%22%20parent%3D%222%22%3E%3CmxGeometry%20y%3D%22140%22%20width%3D%22310%22%20height%3D%2220%22%20as%3D%22geometry%22%2F%3E%3C%2FmxCell%3E%3CmxCell%20id%3D%2210%22%20value%3D%22%22%20style%3D%22shape%3DpartialRectangle%3Bhtml%3D1%3BwhiteSpace%3Dwrap%3Bconnectable%3D0%3BfillColor%3Dnone%3Btop%3D0%3Bleft%3D0%3Bbottom%3D0%3Bright%3D0%3Boverflow%3Dhidden%3BstrokeColor%3Dinherit%3BfontSize%3D16%3B%22%20vertex%3D%221%22%20parent%3D%229%22%3E%3CmxGeometry%20width%3D%2269%22%20height%3D%2220%22%20as%3D%22geometry%22%3E%3CmxRectangle%20width%3D%2269%22%20height%3D%2220%22%20as%3D%22alternateBounds%22%2F%3E%3C%2FmxGeometry%3E%3C%2FmxCell%3E%3CmxCell%20id%3D%2211%22%20value%3D%22%22%20style%3D%22shape%3DpartialRectangle%3Bhtml%3D1%3BwhiteSpace%3Dwrap%3Bconnectable%3D0%3BfillColor%3Dnone%3Btop%3D0%3Bleft%3D0%3Bbottom%3D0%3Bright%3D0%3Balign%3Dleft%3BspacingLeft%3D6%3Boverflow%3Dhidden%3BstrokeColor%3Dinherit%3BfontSize%3D16%3B%22%20vertex%3D%221%22%20parent%3D%229%22%3E%3CmxGeometry%20x%3D%2269%22%20width%3D%22241%22%20height%3D%2220%22%20as%3D%22geometry%22%3E%3CmxRectangle%20width%3D%22241%22%20height%3D%2220%22%20as%3D%22alternateBounds%22%2F%3E%3C%2FmxGeometry%3E%3C%2FmxCell%3E%3C%2Froot%3E%3C%2FmxGraphModel%3E&lt;/span&gt;key&lt;/u&gt;" style="ellipse;whiteSpace=wrap;html=1;" vertex="1" parent="1">
          <mxGeometry x="637.5" y="60" width="80" height="60" as="geometry" />
        </mxCell>
        <mxCell id="zp3nPNhEVCg_G4fRHyut-93" value="Razao Social" style="ellipse;whiteSpace=wrap;html=1;" vertex="1" parent="1">
          <mxGeometry x="412.5" y="60" width="85" height="60" as="geometry" />
        </mxCell>
        <mxCell id="zp3nPNhEVCg_G4fRHyut-94" value="" style="endArrow=none;html=1;rounded=0;exitX=0;exitY=0.5;exitDx=0;exitDy=0;" edge="1" parent="1" source="zp3nPNhEVCg_G4fRHyut-91" target="zp3nPNhEVCg_G4fRHyut-93">
          <mxGeometry width="50" height="50" relative="1" as="geometry">
            <mxPoint x="660" y="440" as="sourcePoint" />
            <mxPoint x="710" y="390" as="targetPoint" />
          </mxGeometry>
        </mxCell>
        <mxCell id="zp3nPNhEVCg_G4fRHyut-95" value="" style="endArrow=none;html=1;rounded=0;exitX=0.988;exitY=0.633;exitDx=0;exitDy=0;exitPerimeter=0;" edge="1" parent="1" source="zp3nPNhEVCg_G4fRHyut-91" target="zp3nPNhEVCg_G4fRHyut-92">
          <mxGeometry width="50" height="50" relative="1" as="geometry">
            <mxPoint x="508" y="150" as="sourcePoint" />
            <mxPoint x="487" y="126" as="targetPoint" />
          </mxGeometry>
        </mxCell>
        <mxCell id="zp3nPNhEVCg_G4fRHyut-96" value="&lt;u&gt;FK&lt;/u&gt;" style="ellipse;whiteSpace=wrap;html=1;" vertex="1" parent="1">
          <mxGeometry x="637.5" y="180" width="80" height="60" as="geometry" />
        </mxCell>
        <mxCell id="zp3nPNhEVCg_G4fRHyut-97" value="" style="endArrow=none;html=1;rounded=0;entryX=1;entryY=1;entryDx=0;entryDy=0;" edge="1" parent="1" source="zp3nPNhEVCg_G4fRHyut-96" target="zp3nPNhEVCg_G4fRHyut-91">
          <mxGeometry width="50" height="50" relative="1" as="geometry">
            <mxPoint x="890" y="280" as="sourcePoint" />
            <mxPoint x="940" y="230" as="targetPoint" />
          </mxGeometry>
        </mxCell>
        <mxCell id="zp3nPNhEVCg_G4fRHyut-98" value="cnpj" style="ellipse;whiteSpace=wrap;html=1;" vertex="1" parent="1">
          <mxGeometry x="400" y="180" width="80" height="60" as="geometry" />
        </mxCell>
        <mxCell id="zp3nPNhEVCg_G4fRHyut-99" value="" style="endArrow=none;html=1;rounded=0;entryX=0;entryY=1;entryDx=0;entryDy=0;" edge="1" parent="1" source="zp3nPNhEVCg_G4fRHyut-98" target="zp3nPNhEVCg_G4fRHyut-91">
          <mxGeometry width="50" height="50" relative="1" as="geometry">
            <mxPoint x="890" y="280" as="sourcePoint" />
            <mxPoint x="940" y="230" as="targetPoint" />
          </mxGeometry>
        </mxCell>
        <mxCell id="zp3nPNhEVCg_G4fRHyut-102" value="" style="endArrow=none;html=1;rounded=0;" edge="1" parent="1" source="zp3nPNhEVCg_G4fRHyut-80">
          <mxGeometry width="50" height="50" relative="1" as="geometry">
            <mxPoint x="180" y="231.5" as="sourcePoint" />
            <mxPoint x="182" y="140" as="targetPoint" />
          </mxGeometry>
        </mxCell>
        <mxCell id="zp3nPNhEVCg_G4fRHyut-103" value="" style="endArrow=none;html=1;rounded=0;entryX=1;entryY=1;entryDx=0;entryDy=0;exitX=0;exitY=0.75;exitDx=0;exitDy=0;" edge="1" parent="1" source="zp3nPNhEVCg_G4fRHyut-91" target="zp3nPNhEVCg_G4fRHyut-75">
          <mxGeometry width="50" height="50" relative="1" as="geometry">
            <mxPoint x="188" y="250" as="sourcePoint" />
            <mxPoint x="189" y="147" as="targetPoint" />
          </mxGeometry>
        </mxCell>
        <mxCell id="zp3nPNhEVCg_G4fRHyut-104" value="1" style="text;strokeColor=none;align=center;fillColor=none;html=1;verticalAlign=middle;whiteSpace=wrap;rounded=0;" vertex="1" parent="1">
          <mxGeometry x="167.5" y="140" width="60" height="30" as="geometry" />
        </mxCell>
        <mxCell id="zp3nPNhEVCg_G4fRHyut-108" value="1&lt;span style=&quot;color: rgba(0, 0, 0, 0); font-family: monospace; font-size: 0px; text-align: start; text-wrap-mode: nowrap;&quot;&gt;%3CmxGraphModel%3E%3Croot%3E%3CmxCell%20id%3D%220%22%2F%3E%3CmxCell%20id%3D%221%22%20parent%3D%220%22%2F%3E%3CmxCell%20id%3D%222%22%20value%3D%22%22%20style%3D%22endArrow%3Dnone%3Bhtml%3D1%3Brounded%3D0%3BentryX%3D0.596%3BentryY%3D0.95%3BentryDx%3D0%3BentryDy%3D0%3BentryPerimeter%3D0%3BexitX%3D0.5%3BexitY%3D0%3BexitDx%3D0%3BexitDy%3D0%3B%22%20edge%3D%221%22%20parent%3D%221%22%3E%3CmxGeometry%20width%3D%2250%22%20height%3D%2250%22%20relative%3D%221%22%20as%3D%22geometry%22%3E%3CmxPoint%20x%3D%22178%22%20y%3D%22240%22%20as%3D%22sourcePoint%22%2F%3E%3CmxPoint%20x%3D%22179%22%20y%3D%22137%22%20as%3D%22targetPoint%22%2F%3E%3C%2FmxGeometry%3E%3C%2FmxCell%3E%3C%2Froot%3E%3C%2FmxGraphModel%3E&lt;/span&gt;" style="text;strokeColor=none;align=center;fillColor=none;html=1;verticalAlign=middle;whiteSpace=wrap;rounded=0;" vertex="1" parent="1">
          <mxGeometry x="157.5" y="220" width="60" height="30" as="geometry" />
        </mxCell>
        <mxCell id="zp3nPNhEVCg_G4fRHyut-109" value="1&lt;span style=&quot;color: rgba(0, 0, 0, 0); font-family: monospace; font-size: 0px; text-align: start; text-wrap-mode: nowrap;&quot;&gt;%3CmxGraphModel%3E%3Croot%3E%3CmxCell%20id%3D%220%22%2F%3E%3CmxCell%20id%3D%221%22%20parent%3D%220%22%2F%3E%3CmxCell%20id%3D%222%22%20value%3D%22%22%20style%3D%22endArrow%3Dnone%3Bhtml%3D1%3Brounded%3D0%3BentryX%3D0.596%3BentryY%3D0.95%3BentryDx%3D0%3BentryDy%3D0%3BentryPerimeter%3D0%3BexitX%3D0.5%3BexitY%3D0%3BexitDx%3D0%3BexitDy%3D0%3B%22%20edge%3D%221%22%20parent%3D%221%22%3E%3CmxGeometry%20width%3D%2250%22%20height%3D%2250%22%20relative%3D%221%22%20as%3D%22geometry%22%3E%3CmxPoint%20x%3D%22178%22%20y%3D%22240%22%20as%3D%22sourcePoint%22%2F%3E%3CmxPoint%20x%3D%22179%22%20y%3D%22137%22%20as%3D%22targetPoint%22%2F%3E%3C%2FmxGeometry%3E%3C%2FmxCell%3E%3C%2Froot%3E%3C%2FmxGraphModel%3E&lt;/span&gt;" style="text;strokeColor=none;align=center;fillColor=none;html=1;verticalAlign=middle;whiteSpace=wrap;rounded=0;" vertex="1" parent="1">
          <mxGeometry x="210" y="120" width="60" height="30" as="geometry" />
        </mxCell>
        <mxCell id="zp3nPNhEVCg_G4fRHyut-112" value="1&lt;span style=&quot;color: rgba(0, 0, 0, 0); font-family: monospace; font-size: 0px; text-align: start; text-wrap-mode: nowrap;&quot;&gt;%3CmxGraphModel%3E%3Croot%3E%3CmxCell%20id%3D%220%22%2F%3E%3CmxCell%20id%3D%221%22%20parent%3D%220%22%2F%3E%3CmxCell%20id%3D%222%22%20value%3D%22%22%20style%3D%22endArrow%3Dnone%3Bhtml%3D1%3Brounded%3D0%3BentryX%3D0.596%3BentryY%3D0.95%3BentryDx%3D0%3BentryDy%3D0%3BentryPerimeter%3D0%3BexitX%3D0.5%3BexitY%3D0%3BexitDx%3D0%3BexitDy%3D0%3B%22%20edge%3D%221%22%20parent%3D%221%22%3E%3CmxGeometry%20width%3D%2250%22%20height%3D%2250%22%20relative%3D%221%22%20as%3D%22geometry%22%3E%3CmxPoint%20x%3D%22178%22%20y%3D%22240%22%20as%3D%22sourcePoint%22%2F%3E%3CmxPoint%20x%3D%22179%22%20y%3D%22137%22%20as%3D%22targetPoint%22%2F%3E%3C%2FmxGeometry%3E%3C%2FmxCell%3E%3C%2Froot%3E%3C%2FmxGraphModel%3E&lt;/span&gt;" style="text;strokeColor=none;align=center;fillColor=none;html=1;verticalAlign=middle;whiteSpace=wrap;rounded=0;" vertex="1" parent="1">
          <mxGeometry x="450" y="130" width="60" height="30" as="geometry" />
        </mxCell>
        <mxCell id="zp3nPNhEVCg_G4fRHyut-113" value="" style="endArrow=none;html=1;rounded=0;" edge="1" parent="1" target="zp3nPNhEVCg_G4fRHyut-80">
          <mxGeometry width="50" height="50" relative="1" as="geometry">
            <mxPoint x="360" y="490" as="sourcePoint" />
            <mxPoint x="290" y="460" as="targetPoint" />
          </mxGeometry>
        </mxCell>
        <mxCell id="zp3nPNhEVCg_G4fRHyut-114" value="" style="endArrow=none;html=1;rounded=0;entryX=0.75;entryY=1;entryDx=0;entryDy=0;" edge="1" parent="1" target="zp3nPNhEVCg_G4fRHyut-91">
          <mxGeometry width="50" height="50" relative="1" as="geometry">
            <mxPoint x="390" y="480" as="sourcePoint" />
            <mxPoint x="212" y="310" as="targetPoint" />
          </mxGeometry>
        </mxCell>
        <mxCell id="zp3nPNhEVCg_G4fRHyut-115" value="Pagamento" style="rhombus;whiteSpace=wrap;html=1;" vertex="1" parent="1">
          <mxGeometry x="280" y="460" width="180" height="80" as="geometry" />
        </mxCell>
        <mxCell id="zp3nPNhEVCg_G4fRHyut-116" value="" style="endArrow=none;html=1;rounded=0;entryX=0.5;entryY=1;entryDx=0;entryDy=0;" edge="1" parent="1" target="zp3nPNhEVCg_G4fRHyut-115">
          <mxGeometry width="50" height="50" relative="1" as="geometry">
            <mxPoint x="380" y="640" as="sourcePoint" />
            <mxPoint x="290" y="460" as="targetPoint" />
          </mxGeometry>
        </mxCell>
        <mxCell id="zp3nPNhEVCg_G4fRHyut-117" value="Entrega" style="rounded=0;whiteSpace=wrap;html=1;" vertex="1" parent="1">
          <mxGeometry x="320" y="630" width="120" height="60" as="geometry" />
        </mxCell>
        <mxCell id="zp3nPNhEVCg_G4fRHyut-118" value="" style="endArrow=none;html=1;rounded=0;entryX=0.95;entryY=0.575;entryDx=0;entryDy=0;entryPerimeter=0;" edge="1" parent="1" target="zp3nPNhEVCg_G4fRHyut-115">
          <mxGeometry width="50" height="50" relative="1" as="geometry">
            <mxPoint x="610" y="500" as="sourcePoint" />
            <mxPoint x="380" y="550" as="targetPoint" />
          </mxGeometry>
        </mxCell>
        <mxCell id="zp3nPNhEVCg_G4fRHyut-119" value="Forma de Pagamento" style="ellipse;whiteSpace=wrap;html=1;" vertex="1" parent="1">
          <mxGeometry x="580" y="460" width="120" height="80" as="geometry" />
        </mxCell>
        <mxCell id="zp3nPNhEVCg_G4fRHyut-120" value="Status" style="ellipse;whiteSpace=wrap;html=1;" vertex="1" parent="1">
          <mxGeometry x="510" y="720" width="120" height="80" as="geometry" />
        </mxCell>
        <mxCell id="zp3nPNhEVCg_G4fRHyut-121" value="Codigo de Rastreio" style="ellipse;whiteSpace=wrap;html=1;" vertex="1" parent="1">
          <mxGeometry x="270" y="750" width="120" height="80" as="geometry" />
        </mxCell>
        <mxCell id="zp3nPNhEVCg_G4fRHyut-122" value="" style="endArrow=none;html=1;rounded=0;entryX=0.942;entryY=1.067;entryDx=0;entryDy=0;entryPerimeter=0;exitX=0;exitY=0;exitDx=0;exitDy=0;" edge="1" parent="1" source="zp3nPNhEVCg_G4fRHyut-120" target="zp3nPNhEVCg_G4fRHyut-117">
          <mxGeometry width="50" height="50" relative="1" as="geometry">
            <mxPoint x="240" y="710" as="sourcePoint" />
            <mxPoint x="290" y="660" as="targetPoint" />
          </mxGeometry>
        </mxCell>
        <mxCell id="zp3nPNhEVCg_G4fRHyut-123" value="" style="endArrow=none;html=1;rounded=0;entryX=0;entryY=1;entryDx=0;entryDy=0;" edge="1" parent="1" source="zp3nPNhEVCg_G4fRHyut-121" target="zp3nPNhEVCg_G4fRHyut-117">
          <mxGeometry width="50" height="50" relative="1" as="geometry">
            <mxPoint x="250" y="720" as="sourcePoint" />
            <mxPoint x="300" y="670" as="targetPoint" />
          </mxGeometry>
        </mxCell>
      </root>
    </mxGraphModel>
  </diagram>
</mxfile>
